<svg width="12" height="16" viewBox="0 0 12 16" fill="none" xmlns="http://www.w3.org/2000/svg">
<path d="M6 15.5C5.17204 15.4959 4.50069 14.8279 4.4925 14H7.4925C7.49409 14.2005 7.45585 14.3994 7.38 14.585C7.18324 15.0365 6.78136 15.3658 6.3 15.47H6.29625H6.285H6.2715H6.26475C6.17761 15.4881 6.08899 15.4982 6 15.5ZM12 13.25H0V11.75L1.5 11V6.875C1.46049 5.81684 1.69945 4.76684 2.193 3.83C2.68428 2.96113 3.52402 2.34416 4.5 2.135V0.5H7.5V2.135C9.43425 2.5955 10.5 4.2785 10.5 6.875V11L12 11.75V13.25Z" fill="#FEFEFE"/>
</svg>
