<svg width="10" height="12" viewBox="0 0 10 12" fill="none" xmlns="http://www.w3.org/2000/svg">
<path d="M4.99992 11.8333C4.35595 11.8301 3.83379 11.3106 3.82742 10.6666H6.16075C6.16198 10.8226 6.13224 10.9772 6.07325 11.1216C5.92022 11.4728 5.60764 11.7289 5.23325 11.81H5.23033H5.22158H5.21108H5.20583C5.13806 11.8241 5.06913 11.8319 4.99992 11.8333ZM9.66658 10.0833H0.333252V8.91663L1.49992 8.33329V5.12496C1.46919 4.30195 1.65505 3.48528 2.03892 2.75663C2.42102 2.08084 3.07416 1.60097 3.83325 1.43829V0.166626H6.16658V1.43829C7.671 1.79646 8.49992 3.10546 8.49992 5.12496V8.33329L9.66658 8.91663V10.0833Z" fill="#C6C6D4"/>
</svg>
