<svg width="11" height="12" viewBox="0 0 11 12" fill="none" xmlns="http://www.w3.org/2000/svg">
<path d="M8.16667 11.6667H2.33333C1.689 11.6667 1.16667 11.1443 1.16667 10.5V2.91667H0V1.75H2.33333V1.16667C2.33333 0.522334 2.85567 0 3.5 0H7C7.64433 0 8.16667 0.522334 8.16667 1.16667V1.75H10.5V2.91667H9.33333V10.5C9.33333 11.1443 8.811 11.6667 8.16667 11.6667ZM2.33333 2.91667V10.5H8.16667V2.91667H2.33333ZM3.5 1.16667V1.75H7V1.16667H3.5ZM7 9.33333H5.83333V4.08333H7V9.33333ZM4.66667 9.33333H3.5V4.08333H4.66667V9.33333Z" fill="#FF3B30" fill-opacity="0.24"/>
</svg>
