<svg display="block"> 
    <symbol id="home" xmlns="http://www.w3.org/2000/svg" viewBox="0 0 14 17" >
        <path d="M0.577541 6.92254L6.41087 1.0892C6.73629 0.763885 7.26379 0.763885 7.58921 1.0892L13.4225 6.92254C13.5788 7.07878 13.6667 7.29071 13.6667 7.5117V15.5C13.6667 15.9603 13.2936 16.3334 12.8334 16.3334H8.66671V10.5H5.33337V16.3334H1.16671C0.70647 16.3334 0.333374 15.9603 0.333374 15.5V7.5117C0.333374 7.29071 0.42125 7.07878 0.577541 6.92254Z"></path>
    </symbol>

    <symbol id="settings" xmlns="http://www.w3.org/2000/svg" viewBox="0 0 18 18">
        <path d="M10.5167 17.3334H7.48335C7.09178 17.3334 6.75298 17.0609 6.66918 16.6784L6.33001 15.1084C5.87756 14.9102 5.44853 14.6623 5.05085 14.3692L3.52001 14.8567C3.14668 14.9758 2.74084 14.8187 2.54501 14.4792L1.02501 11.8534C0.831337 11.5138 0.898062 11.0855 1.18585 10.8209L2.37335 9.73758C2.31934 9.24684 2.31934 8.75166 2.37335 8.26091L1.18585 7.18008C0.897638 6.91539 0.830886 6.48652 1.02501 6.14675L2.54168 3.51925C2.7375 3.17983 3.14335 3.0227 3.51668 3.14175L5.04751 3.62925C5.2509 3.47854 5.46262 3.33944 5.68168 3.21258C5.89196 3.09399 6.10838 2.98662 6.33001 2.89091L6.67001 1.32258C6.7534 0.940055 7.09184 0.66716 7.48335 0.666748H10.5167C10.9082 0.66716 11.2466 0.940055 11.33 1.32258L11.6733 2.89175C11.9073 2.99468 12.1352 3.11098 12.3558 3.24008C12.5619 3.35906 12.7611 3.48955 12.9525 3.63091L14.4842 3.14341C14.8573 3.02481 15.2626 3.18188 15.4583 3.52091L16.975 6.14842C17.1687 6.48799 17.102 6.91634 16.8142 7.18091L15.6267 8.26425C15.6807 8.75499 15.6807 9.25017 15.6267 9.74092L16.8142 10.8242C17.102 11.0888 17.1687 11.5172 16.975 11.8567L15.4583 14.4842C15.2626 14.8233 14.8573 14.9804 14.4842 14.8617L12.9525 14.3742C12.7587 14.517 12.5573 14.6491 12.3492 14.7701C12.1307 14.8967 11.9054 15.011 11.6742 15.1126L11.33 16.6784C11.2463 17.0606 10.9079 17.3331 10.5167 17.3334ZM8.99668 5.66675C7.15573 5.66675 5.66335 7.15913 5.66335 9.00008C5.66335 10.841 7.15573 12.3334 8.99668 12.3334C10.8376 12.3334 12.33 10.841 12.33 9.00008C12.33 7.15913 10.8376 5.66675 8.99668 5.66675Z"></path>
    </symbol>

    <symbol id="notification" xmlns="http://www.w3.org/2000/svg" viewBox="0 0 12 16">
        <path d="M6 15.5C5.17204 15.4959 4.50069 14.8279 4.4925 14H7.4925C7.49409 14.2005 7.45585 14.3994 7.38 14.585C7.18324 15.0365 6.78136 15.3658 6.3 15.47H6.29625H6.285H6.2715H6.26475C6.17761 15.4881 6.08899 15.4982 6 15.5ZM12 13.25H0V11.75L1.5 11V6.875C1.46049 5.81684 1.69945 4.76684 2.193 3.83C2.68428 2.96113 3.52402 2.34416 4.5 2.135V0.5H7.5V2.135C9.43425 2.5955 10.5 4.2785 10.5 6.875V11L12 11.75V13.25Z"></path>
    </symbol>

    <symbol id="arrow-down" xmlns="http://www.w3.org/2000/svg" viewBox="0 0 10 6">
        <path d="M5.00005 5.78481L9.50755 1.27731L8.4478 0.216064L5.00005 3.66606L1.55305 0.216064L0.492554 1.27656L5.00005 5.78481Z"></path>
    </symbol>

    <symbol id="bell" xmlns="http://www.w3.org/2000/svg" viewBox="0 0 10 12" >
        <path d="M4.99992 11.8333C4.35595 11.8301 3.83379 11.3106 3.82742 10.6666H6.16075C6.16198 10.8226 6.13224 10.9772 6.07325 11.1216C5.92022 11.4728 5.60764 11.7289 5.23325 11.81H5.23033H5.22158H5.21108H5.20583C5.13806 11.8241 5.06913 11.8319 4.99992 11.8333ZM9.66658 10.0833H0.333252V8.91663L1.49992 8.33329V5.12496C1.46919 4.30195 1.65505 3.48528 2.03892 2.75663C2.42102 2.08084 3.07416 1.60097 3.83325 1.43829V0.166626H6.16658V1.43829C7.671 1.79646 8.49992 3.10546 8.49992 5.12496V8.33329L9.66658 8.91663V10.0833Z"></path>
    </symbol>

    <symbol id="delete" xmlns="http://www.w3.org/2000/svg" viewBox="0 0 11 12" >
        <path d="M8.16667 11.6667H2.33333C1.689 11.6667 1.16667 11.1443 1.16667 10.5V2.91667H0V1.75H2.33333V1.16667C2.33333 0.522334 2.85567 0 3.5 0H7C7.64433 0 8.16667 0.522334 8.16667 1.16667V1.75H10.5V2.91667H9.33333V10.5C9.33333 11.1443 8.811 11.6667 8.16667 11.6667ZM2.33333 2.91667V10.5H8.16667V2.91667H2.33333ZM3.5 1.16667V1.75H7V1.16667H3.5ZM7 9.33333H5.83333V4.08333H7V9.33333ZM4.66667 9.33333H3.5V4.08333H4.66667V9.33333Z"></path>
    </symbol>

    <symbol id="exit-menu" xmlns="http://www.w3.org/2000/svg" viewBox="0 0 18 18" >
        <path d="M2 1.39876e-06L16 1.74846e-07C17.1046 7.8281e-08 18 0.89543 18 2L18 6L16 6L16 2L2 2L2 16L16 16L16 12L18 12L18 16C18 17.1046 17.1046 18 16 18L2 18C0.89543 18 -7.8281e-08 17.1046 -1.74846e-07 16L-1.39876e-06 2C-1.49533e-06 0.895431 0.895428 1.49533e-06 2 1.39876e-06ZM10 5L10 8L18 8L18 10L10 10L10 13L5 9L10 5Z"></path>
    </symbol>
</svg>